# xmcd
#
# Track frame offsets: 
#        150
#        13210
#        40715
#        64365
#        94172
#        114217
#        125605
#        144457
#        211887
#        224235
#        238872
#        251737
#        274282
#
# Disc length: 3914 seconds
#
# Revision: 4
# Processed by: cddbd v1.5.2PL0 Copyright (c) Steve Scherf et al.
# Submitted via: ExactAudioCopyFreeDBPlugin 1.0
#
DISCID=ce0f480d
DTITLE=James Brown - The Great James Brown (3 CD Set Containing Classi
DTITLE=c Performances) [Rajon Music]
DYEAR=2002
DGENRE=Soul
TTITLE0=Gonna Have a Funky Good Time (Doing it to Death)
TTITLE1=Get Up Offa That Thing
TTITLE2=Body Heat
TTITLE3=Sex Machine
TTITLE4=Try Me
TTITLE5=Papa's Got a Brand New Bag
TTITLE6=Get On the Good Foot
TTITLE7=It's A Man's, Man's, Man's World - Lost Somewhere - It's A Man
TTITLE7='s, Man's, Man's World
TTITLE8=I Got the Feeling
TTITLE9=Cold Sweat
TTITLE10=Please, Please, Please
TTITLE11=Jam
TTITLE12=The Payback - It's Too Funky in Here
EXTD=
EXTT0=
EXTT1=
EXTT2=
EXTT3=
EXTT4=
EXTT5=
EXTT6=
EXTT7=
EXTT8=
EXTT9=
EXTT10=
EXTT11=
EXTT12=
PLAYORDER=
